<?xml version="1.0" standalone="yes"?>
<svg xmlns="http://www.w3.org/2000/svg" width="512" height="512">
<path style="fill:#eef1f1; stroke:none;" d="M0 0L0 28L1 28C4.20379 17.1124 13.1045 10.5802 24 8.61575C47.3176 4.41171 74.3002 8 98 8L402 8C429.326 8 458.917 4.76123 486 8.28937C497.659 9.80817 507.576 16.3628 511 28L512 28L512 0L0 0z"/>
<path style="fill:#3a4d62; stroke:none;" d="M0 326L35 326L35 44L256 44L256 327L512 326L512 102L512 47C512 36.7487 513.26 26.5792 506.471 18.0154C498.276 7.67914 484.935 8 473 8L397 8L106 8L38 8C26.3497 8 13.4918 7.97168 5.52932 18.0154C-1.25981 26.5792 0 36.7487 0 47L0 102L0 326z"/>
<path style="fill:#ebba18; stroke:none;" d="M35 44L35 327L256 327L256 44L35 44z"/>
<path style="fill:#eef1f1; stroke:none;" d="M146.055 72.0278C140.014 75.2808 141 83.2505 141 89C141 105.863 138.874 124.304 141.189 141C142.028 147.048 147.828 152.093 153.945 148.82C160.254 145.446 159 136.971 159 131C159 114.285 161.421 95.4997 158.786 79.0038C157.845 73.1102 151.791 68.9388 146.055 72.0278z"/>
<path style="fill:#d24a3a; stroke:none;" d="M288.044 71.7423C280.981 74.6206 281.795 85.5273 289.015 87.5663C295.858 89.4987 304.917 88 312 88L360 88C366.581 88 379.277 90.4101 384.772 86.2577C390.597 81.8554 387.823 72.4901 380.996 71.2284C360.754 67.4876 336.609 71 316 71C307.936 71 295.567 68.6766 288.044 71.7423z"/>
<path style="fill:#4a8cb9; stroke:none;" d="M413.015 71.5725C406.353 73.5455 404.845 83.0172 411.109 86.5432C417.435 90.1043 437.278 89.7695 443.981 87.1065C451.073 84.2893 451.127 74.5812 443.981 71.7423C437.139 69.0239 420.056 69.4875 413.015 71.5725M288.044 106.858C281.041 109.877 281.424 119.374 288.019 122.566C294.946 125.919 314.052 125.909 320.981 122.566C327.586 119.38 328.204 109.691 320.956 106.742C314.378 104.066 294.56 104.049 288.044 106.858M290.001 141.573C281.854 143.926 280.424 155.502 289.04 158.347C295.753 160.564 304.984 159 312 159L359 159C366.026 159 377.553 161.175 383.811 157.543C392.048 152.763 386.88 142.28 379 141.189C360.386 138.611 339.801 141 321 141C311.491 141 299.166 138.925 290.001 141.573z"/>
<path style="fill:#d24a3a; stroke:none;" d="M413.005 141.653C405.709 143.98 403.794 153.861 411.055 157.682C417.383 161.012 437.354 160.873 443.985 158.258C451.007 155.488 451.728 145.834 444.956 142.318C438.39 138.909 419.997 139.422 413.005 141.653z"/>
<path style="fill:#eef1f1; stroke:none;" d="M146.055 169.028C136.283 174.289 138.779 209.933 153.945 201.82C163.737 196.583 161.236 160.854 146.055 169.028z"/>
<path style="fill:#4a8cb9; stroke:none;" d="M291 176L291 177L318 177L291 176M287 177L288 178L287 177z"/>
<path style="fill:#eef1f1; stroke:none;" d="M288.044 177.742C281.385 180.456 281.759 190.181 288.094 192.991C294.712 195.926 314.288 195.926 320.906 192.991C327.241 190.181 327.615 180.456 320.956 177.742C314.369 175.058 294.631 175.058 288.044 177.742z"/>
<path style="fill:#4a8cb9; stroke:none;" d="M321 177L322 178L321 177z"/>
<path style="fill:#d24a3a; stroke:none;" d="M350.019 177.742C342.646 180.682 343.53 191.453 351.015 193.566C357.859 195.498 366.916 194 374 194L422 194C428.727 194 440.987 196.333 446.606 191.991C452.259 187.622 449.819 178.508 442.985 177.228C422.783 173.447 398.579 177 378 177C369.877 177 357.62 174.712 350.019 177.742z"/>
<path style="fill:#4a8cb9; stroke:none;" d="M283 181L284 182L283 181z"/>
<path style="fill:#ebba18; stroke:none;" d="M325 181L326 182L325 181z"/>
<path style="fill:#4a8cb9; stroke:none;" d="M282.333 184.667L282.667 185.333L282.333 184.667M326 184L326 187L327 187L326 184M283 189L284 190L283 189M325 189L326 190L325 189z"/>
<path style="fill:#ebba18; stroke:none;" d="M284 190L285 191L284 190M324 190L325 191L324 190z"/>
<path style="fill:#4a8cb9; stroke:none;" d="M286 192L287 193L286 192z"/>
<path style="fill:#ebba18; stroke:none;" d="M322 192L323 193L322 192M288 193L289 194L288 193M320 193L321 194L320 193z"/>
<path style="fill:#4a8cb9; stroke:none;" d="M321 193L322 194L321 193z"/>
<path style="fill:#ebba18; stroke:none;" d="M412.019 212.742C405.579 215.301 404.372 225.089 411.108 228.142C417.524 231.051 438.406 230.978 444.906 228.258C452.071 225.259 450.601 215.352 443.985 212.742C437.388 210.141 418.61 210.124 412.019 212.742z"/>
<path style="fill:#4a8cb9; stroke:none;" d="M444 212L445 213L444 212z"/>
<path style="fill:#d24a3a; stroke:none;" d="M447 214L448 215L447 214z"/>
<path style="fill:#4a8cb9; stroke:none;" d="M449 217L450 218L449 217M406 218L407 219L406 218z"/>
<path style="fill:#d24a3a; stroke:none;" d="M406 222L407 223L406 222M448 225L449 226L448 225z"/>
<path style="fill:#4a8cb9; stroke:none;" d="M409 227L410 228L409 227z"/>
<path style="fill:#d24a3a; stroke:none;" d="M415 229L415 230L441 230L415 229z"/>
<path style="fill:#4a8cb9; stroke:none;" d="M441 229L442 230L441 229z"/>
<path style="fill:#eef1f1; stroke:none;" d="M93 230.858C83.3717 234.74 72.883 248.23 66.189 256C63.5444 259.07 61.3374 262.782 62.3225 267C63.2856 271.124 67.1442 274.138 70 277C76.1687 283.181 90.7114 304.227 100.956 298.82C118.721 289.445 86.0556 273.537 86.0556 265C86.0556 261.859 90.011 258.997 92 257C96.5456 252.436 103.307 247.402 105.282 241C107.65 233.322 99.8039 228.115 93 230.858M155.093 230.742C149.899 232.892 147.57 240.353 145.247 245C138.593 258.309 128.677 272.681 124.637 287C122.581 294.286 127.623 302.588 135.957 299.257C141.211 297.157 143.421 289.665 145.753 285C152.564 271.378 163.711 255.842 167.171 241C168.824 233.91 161.936 227.91 155.093 230.742M208 264L195.001 277C191.621 280.397 187.187 284.154 185.948 289C184.252 295.629 190.584 301.319 197 299.482C206.597 296.735 223.086 278.565 227.91 270C234.503 258.294 211.453 242.031 204 235.044C200.507 231.769 196.039 228.707 191.019 230.604C174.179 236.969 201.853 259.67 208 264z"/>
<path style="fill:#d24a3a; stroke:none;" d="M290.001 247.573C282.302 249.796 280.495 259.854 288.019 263.682C294.738 267.1 312.865 266.539 319.96 264.196C326.645 261.988 328.335 252.186 321.811 248.573C315.178 244.899 297.197 245.494 290.001 247.573M351 247L351 248L443 248L415 247L351 247z"/>
<path style="fill:#ebba18; stroke:none;" d="M349.059 249.028C342.878 252.413 344.333 261.977 351.005 263.682C357.927 265.451 366.869 264 374 264L422 264C428.385 264 441.378 266.454 446.606 262.258C451.944 257.973 449.481 249.449 442.985 248.228C421.866 244.262 396.515 248 375 248C367.949 248 355.345 245.585 349.059 249.028z"/>
<path style="fill:#d24a3a; stroke:none;" d="M445 248L446 249L445 248M347 249L348 250L347 249M346 250L347 251L346 250M448 251L449 252L448 251M449 253L450 254L449 253M344.333 255.667L344.667 256.333L344.333 255.667M449 258L450 259L449 258M448 260L449 261L448 260M346 261L347 262L346 261M347 262L348 263L347 262M445 263L446 264L445 263M351 264L351 265L443 265L415 264L351 264M291 282.483C283.654 284.09 279.264 294.405 287.109 298.821C293.361 302.34 313.12 301.504 319.985 299.566C327.826 297.353 327.958 286.811 320.981 283.434C313.94 280.025 298.54 280.833 291 282.483z"/>
<path style="fill:#4a8cb9; stroke:none;" d="M353 282.483C344.887 284.258 340.745 295.561 350.019 299.258C356.133 301.695 365.492 300 372 300L422 300C428.792 300 439.753 302.059 445.811 298.543C456.323 292.443 445.957 282.677 438 282.09C420.526 280.802 402.524 282 385 282C374.839 282 362.946 280.307 353 282.483M0 326L0 327L35 327L0 326M477 326L477 327L512 327L477 326z"/>
<path style="fill:#eef1f1; stroke:none;" d="M0 327L0 512L512 512L512 327L0 327z"/>
<path style="fill:#ebba18; stroke:none;" d="M230.001 353.468C222.629 354.905 216.959 365.376 226.105 369.258C230.583 371.158 237.223 370 242 370C254.13 370 274.725 373.998 285.895 369.258C295.041 365.376 289.371 354.905 281.999 353.468C267.524 350.647 244.476 350.647 230.001 353.468M211 398C211 429.866 200.239 458.378 167 467L167 468L345 468L345 467C311.761 458.378 301 429.866 301 398L211 398z"/>
</svg>
